<svg width="152" height="130" viewBox="0 0 152 130" fill="none" xmlns="http://www.w3.org/2000/svg">
<g id="Device">
<g id="Group">
<g id="Group_2">
<path id="Vector" d="M151.694 0.157227H0.81604V104.08H151.694V0.157227Z" fill="#263238"/>
</g>
<g id="Group_3">
<g id="Group_4">
<path id="Vector_2" d="M49.1936 42.2232C49.0698 42.2232 48.97 40.6288 48.97 38.6637C48.97 36.6969 49.0706 35.1033 49.1936 35.1033C49.3174 35.1033 49.4172 36.6969 49.4172 38.6637C49.4172 40.6296 49.3174 42.2232 49.1936 42.2232Z" fill="#455A64"/>
</g>
</g>
<g id="Group_5">
<g id="Group_6">
<path id="Vector_3" d="M53.2279 42.2232C53.104 42.2232 53.0043 40.6288 53.0043 38.6637C53.0043 36.6969 53.1049 35.1033 53.2279 35.1033C53.3508 35.1033 53.4515 36.6969 53.4515 38.6637C53.4523 40.6296 53.3517 42.2232 53.2279 42.2232Z" fill="#455A64"/>
</g>
</g>
<g id="Group_7">
<g id="Group_8">
<path id="Vector_4" d="M57.263 42.2232C57.1392 42.2232 57.0394 40.6288 57.0394 38.6637C57.0394 36.6969 57.14 35.1033 57.263 35.1033C57.386 35.1033 57.4866 36.6969 57.4866 38.6637C57.4866 40.6296 57.3868 42.2232 57.263 42.2232Z" fill="#455A64"/>
</g>
</g>
<g id="Group_9">
<g id="Group_10">
<path id="Vector_5" d="M61.2973 42.2232C61.1734 42.2232 61.0737 40.6288 61.0737 38.6637C61.0737 36.6969 61.1743 35.1033 61.2973 35.1033C61.4203 35.1033 61.5208 36.6969 61.5208 38.6637C61.5208 40.6296 61.4211 42.2232 61.2973 42.2232Z" fill="#455A64"/>
</g>
</g>
<g id="Group_11">
<g id="Group_12">
<path id="Vector_6" d="M65.3315 42.2232C65.2077 42.2232 65.1079 40.6288 65.1079 38.6637C65.1079 36.6969 65.2085 35.1033 65.3315 35.1033C65.4545 35.1033 65.5551 36.6969 65.5551 38.6637C65.556 40.6296 65.4554 42.2232 65.3315 42.2232Z" fill="#455A64"/>
</g>
</g>
<g id="Group_13">
<g id="Group_14">
<path id="Vector_7" d="M69.3667 42.2232C69.2428 42.2232 69.1431 40.6288 69.1431 38.6637C69.1431 36.6969 69.2437 35.1033 69.3667 35.1033C69.4896 35.1033 69.5902 36.6969 69.5902 38.6637C69.5902 40.6296 69.4905 42.2232 69.3667 42.2232Z" fill="#455A64"/>
</g>
</g>
<g id="Group_15">
<g id="Group_16">
<path id="Vector_8" d="M73.4009 42.2232C73.2771 42.2232 73.1773 40.6288 73.1773 38.6637C73.1773 36.6969 73.2779 35.1033 73.4009 35.1033C73.5239 35.1033 73.6245 36.6969 73.6245 38.6637C73.6254 40.6296 73.5247 42.2232 73.4009 42.2232Z" fill="#455A64"/>
</g>
</g>
<g id="Group_17">
<g id="Group_18">
<path id="Vector_9" d="M77.436 42.2232C77.3122 42.2232 77.2124 40.6288 77.2124 38.6637C77.2124 36.6969 77.3122 35.1033 77.436 35.1033C77.5599 35.1033 77.6596 36.6969 77.6596 38.6637C77.6596 40.6296 77.559 42.2232 77.436 42.2232Z" fill="#455A64"/>
</g>
</g>
<g id="Group_19">
<g id="Group_20">
<path id="Vector_10" d="M81.4703 42.2232C81.3464 42.2232 81.2467 40.6288 81.2467 38.6637C81.2467 36.6969 81.3473 35.1033 81.4703 35.1033C81.5933 35.1033 81.6939 36.6969 81.6939 38.6637C81.6939 40.6296 81.5941 42.2232 81.4703 42.2232Z" fill="#455A64"/>
</g>
</g>
<g id="Group_21">
<g id="Group_22">
<path id="Vector_11" d="M85.5045 42.2232C85.3807 42.2232 85.281 40.6288 85.281 38.6637C85.281 36.6969 85.3816 35.1033 85.5045 35.1033C85.6284 35.1033 85.7281 36.6969 85.7281 38.6637C85.729 40.6296 85.6284 42.2232 85.5045 42.2232Z" fill="#455A64"/>
</g>
</g>
<g id="Group_23">
<g id="Group_24">
<path id="Vector_12" d="M89.5396 42.2232C89.4158 42.2232 89.316 40.6288 89.316 38.6637C89.316 36.6969 89.4167 35.1033 89.5396 35.1033C89.6635 35.1033 89.7633 36.6969 89.7633 38.6637C89.7633 40.6296 89.6626 42.2232 89.5396 42.2232Z" fill="#455A64"/>
</g>
</g>
<g id="Group_25">
<g id="Group_26">
<path id="Vector_13" d="M93.5739 42.2232C93.4501 42.2232 93.3503 40.6288 93.3503 38.6637C93.3503 36.6969 93.4509 35.1033 93.5739 35.1033C93.6977 35.1033 93.7975 36.6969 93.7975 38.6637C93.7975 40.6296 93.6977 42.2232 93.5739 42.2232Z" fill="#455A64"/>
</g>
</g>
<g id="Group_27">
<g id="Group_28">
<path id="Vector_14" d="M97.6082 42.2232C97.4844 42.2232 97.3846 40.6288 97.3846 38.6637C97.3846 36.6969 97.4852 35.1033 97.6082 35.1033C97.732 35.1033 97.8318 36.6969 97.8318 38.6637C97.8327 40.6296 97.732 42.2232 97.6082 42.2232Z" fill="#455A64"/>
</g>
</g>
<g id="Group_29">
<g id="Group_30">
<path id="Vector_15" d="M101.643 42.2232C101.519 42.2232 101.42 40.6288 101.42 38.6637C101.42 36.6969 101.52 35.1033 101.643 35.1033C101.766 35.1033 101.867 36.6969 101.867 38.6637C101.867 40.6296 101.766 42.2232 101.643 42.2232Z" fill="#455A64"/>
</g>
</g>
<g id="Group_31">
<g id="Group_32">
<path id="Vector_16" d="M105.678 42.2232C105.554 42.2232 105.454 40.6288 105.454 38.6637C105.454 36.6969 105.555 35.1033 105.678 35.1033C105.801 35.1033 105.901 36.6969 105.901 38.6637C105.901 40.6296 105.801 42.2232 105.678 42.2232Z" fill="#455A64"/>
</g>
</g>
<g id="Group_33">
<g id="Group_34">
<path id="Vector_17" d="M109.712 42.2232C109.588 42.2232 109.488 40.6288 109.488 38.6637C109.488 36.6969 109.589 35.1033 109.712 35.1033C109.835 35.1033 109.935 36.6969 109.935 38.6637C109.936 40.6296 109.836 42.2232 109.712 42.2232Z" fill="#455A64"/>
</g>
</g>
<g id="Group_35">
<g id="Group_36">
<path id="Vector_18" d="M129.01 91.7455C129.01 91.7455 128.997 91.3456 128.991 90.5863C128.987 89.8183 128.98 88.6951 128.972 87.2288C128.961 84.2799 128.947 79.9575 128.927 74.4165C128.904 63.3389 128.873 47.3953 128.834 27.8828L129.009 28.0582C101.071 28.0711 65.1853 28.0883 26.1697 28.1064H26.1619L26.3855 27.8828C26.3795 50.524 26.3735 72.1083 26.3684 91.7464L26.1619 91.54C56.3325 91.5813 82.0164 91.6165 100.17 91.6415C109.253 91.6656 116.451 91.6845 121.389 91.6974C123.852 91.7086 125.749 91.7172 127.043 91.7223C127.681 91.7275 128.167 91.7318 128.505 91.7344C128.836 91.7378 129.01 91.7455 129.01 91.7455C129.01 91.7455 128.853 91.7533 128.531 91.7576C128.197 91.7602 127.719 91.7645 127.092 91.7696C125.808 91.7756 123.925 91.7834 121.48 91.7946C116.552 91.8075 109.371 91.8264 100.308 91.8505C82.1204 91.8754 56.3892 91.9107 26.1628 91.9519H25.9555V91.7447C25.9504 72.1066 25.9444 50.5223 25.9384 27.8811V27.6575H26.1619H26.1697C65.1853 27.6755 101.071 27.6927 129.009 27.7056H129.186V27.8811C129.147 47.4392 129.115 63.4206 129.093 74.524C129.074 80.0487 129.058 84.3573 129.048 87.2976C129.039 88.7502 129.033 89.8621 129.028 90.6224C129.022 91.3714 129.01 91.7455 129.01 91.7455Z" fill="#455A64"/>
</g>
</g>
<g id="Group_37">
<path id="Vector_19" d="M101.012 82.8402H54.8103V129.042H101.012V82.8402Z" fill="#263238"/>
</g>
<g id="Group_38">
<g id="Group_39">
<path id="Vector_20" d="M55.1749 73.3029C55.2988 73.3029 55.3985 85.3282 55.3985 100.159C55.3985 114.995 55.2988 127.018 55.1749 127.018C55.0511 127.018 54.9513 114.995 54.9513 100.159C54.9513 85.3282 55.0511 73.3029 55.1749 73.3029Z" fill="#455A64"/>
</g>
</g>
<g id="Group_40">
<g id="Group_41">
<path id="Vector_21" d="M101.332 73.3029C101.456 73.3029 101.556 85.3282 101.556 100.159C101.556 114.995 101.455 127.018 101.332 127.018C101.209 127.018 101.108 114.995 101.108 100.159C101.108 85.3282 101.208 73.3029 101.332 73.3029Z" fill="#455A64"/>
</g>
</g>
</g>
</g>
</svg>
