<svg width="56" height="16" viewBox="0 0 56 16" fill="none" xmlns="http://www.w3.org/2000/svg">
<g id="Group">
<g id="Group_2">
<g id="Group_3">
<g id="Group_4">
<g id="Group_5">
<g id="Group_6">
<g id="Group_7">
<path id="Vector" d="M55.6727 15.3837C55.6669 15.3779 55.6611 15.292 55.6553 15.1273C55.6507 14.9382 55.6449 14.7004 55.6368 14.4023C55.6275 13.7376 55.6136 12.8108 55.595 11.623C55.573 9.18464 55.5405 5.67912 55.4999 1.25836L55.6704 1.42308C43.0566 1.44744 22.9955 1.48571 0.428888 1.52979C0.553008 1.40799 0.144712 1.80124 0.707312 1.25836V1.26183V1.26879V1.28272V1.31056V1.36739V1.48108V1.70844V2.16199V3.06796C0.707312 3.67116 0.707312 4.27087 0.707312 4.86943C0.707312 6.06655 0.707304 7.25555 0.706144 8.43411C0.704984 10.7924 0.702666 13.1101 0.701506 15.3825L0.426587 15.1169C16.1573 15.1656 29.9219 15.2074 39.7958 15.2375C44.7131 15.27 48.6594 15.2955 51.4167 15.3129C52.7577 15.328 53.8074 15.3396 54.5591 15.3477C54.8978 15.3547 55.1681 15.3605 55.3816 15.3651C55.5683 15.3721 55.6669 15.3767 55.6727 15.3837C55.6785 15.3895 55.5927 15.3953 55.4175 15.4011C55.2134 15.4057 54.9535 15.4115 54.6299 15.4185C53.8921 15.4266 52.8621 15.4394 51.5466 15.4533C48.8055 15.4718 44.8801 15.4974 39.9895 15.5287C30.0692 15.5588 16.2362 15.6018 0.428888 15.6493L0.153969 15.6505V15.3837C0.152809 13.1124 0.150491 10.7936 0.149331 8.43528C0.149331 7.25672 0.148163 6.06772 0.148163 4.8706C0.148163 4.27204 0.148163 3.67115 0.148163 3.06911V2.16316V1.70959V1.48223V1.36856V1.31171V1.28387V1.26995V1.263V1.25951C0.711923 0.715472 0.305953 1.10871 0.432393 0.986911C22.999 1.02983 43.0589 1.06928 55.6739 1.09364H55.8467L55.8456 1.25951C55.805 5.72087 55.7737 9.26003 55.7505 11.7215C55.7331 12.8943 55.7191 13.8084 55.7087 14.465C55.7017 14.7503 55.6959 14.9788 55.6901 15.161C55.6843 15.3129 55.6785 15.3883 55.6727 15.3837Z" fill="#E0E0E0"/>
</g>
</g>
</g>
</g>
</g>
</g>
</g>
</svg>
