<svg width="139" height="247" viewBox="0 0 139 247" fill="none" xmlns="http://www.w3.org/2000/svg">
<g id="Group">
<g id="Group_2">
<path id="Vector" d="M69.9702 197.6C69.9702 197.6 62.8826 148.872 63.4731 120.521C64.0635 92.1692 63.4382 60.275 63.4382 60.275H66.7036C66.7036 60.275 64.4915 116.549 66.8997 150.489C69.3044 184.403 75.6426 197.6 75.6426 197.6H69.9702Z" fill="#E0E0E0"/>
<path id="Vector_2" d="M91.0822 5.44761C90.4257 3.78301 89.6183 2.04881 88.1068 1.09065C86.0351 -0.222468 83.3184 0.323882 81.0053 1.14168C71.1372 4.63096 62.3896 23.0309 58.4004 32.7088L71.5014 76.8525C95.1492 54.9146 99.244 26.1339 91.0822 5.44761Z" fill="#EBEBEB"/>
<g id="Group_3">
<path id="Vector_3" d="M87.3412 2.87703C87.3586 2.88515 87.2925 3.08235 87.151 3.45239C86.9828 3.87463 86.7705 4.40706 86.5095 5.0613C85.9353 6.44982 85.1291 8.47055 84.1663 10.9773C82.2361 15.9897 79.778 22.9984 77.5822 30.8934C75.3944 38.7941 73.8864 46.0673 72.9572 51.3569C72.4898 54.0017 72.1394 56.1489 71.9156 57.6348C71.8019 58.3285 71.7091 58.8946 71.636 59.3435C71.5664 59.7333 71.52 59.9374 71.5014 59.9351C71.4829 59.9328 71.4921 59.7252 71.5269 59.3296C71.5733 58.8772 71.6337 58.3065 71.7056 57.6058C71.8657 56.1094 72.1592 53.9518 72.5791 51.2931C73.4143 45.9768 74.8666 38.67 77.0602 30.7484C79.263 22.8314 81.7848 15.8226 83.8102 10.8369C84.8206 8.34295 85.6813 6.34195 86.3158 4.97663C86.6139 4.33979 86.8575 3.82011 87.0512 3.40715C87.2252 3.05219 87.325 2.86891 87.3412 2.87703Z" fill="#E0E0E0"/>
</g>
<path id="Vector_4" d="M65.6794 87.4364C53.3996 80.6516 46.1624 67.8858 45.4872 53.8718C45.0151 44.0756 48.0253 34.4627 51.4346 25.2674C51.7304 24.4693 52.0818 23.6109 52.8219 23.191C53.852 22.6075 55.1408 23.1272 56.1697 23.713C65.0936 28.7938 70.4992 38.4821 73.376 48.3386C75.29 54.8972 76.2818 61.8143 75.3955 68.5899C74.5104 75.3655 70.6372 82.7361 65.6794 87.4364Z" fill="#E0E0E0"/>
<g id="Group_4">
<path id="Vector_5" d="M65.6794 87.4364C65.6608 87.4364 65.6446 87.2322 65.6318 86.8448C65.6237 86.3982 65.6121 85.8368 65.5993 85.15C65.5959 83.6792 65.5355 81.5517 65.4149 78.9267C65.1783 73.6765 64.4904 66.4392 63.1355 58.5338C61.7725 50.6273 60.1195 43.5466 58.9015 38.4299C58.3006 35.9254 57.8088 33.8734 57.448 32.37C57.2949 31.7007 57.1696 31.1532 57.0699 30.7182C56.9898 30.3389 56.955 30.137 56.9736 30.1324C56.9921 30.1278 57.0606 30.3203 57.1754 30.6904C57.3007 31.1196 57.4585 31.6578 57.651 32.3178C58.0547 33.7342 58.6127 35.7897 59.2715 38.3383C60.5847 43.4353 62.3003 50.5148 63.6668 58.4445C65.0251 66.3731 65.6562 73.6452 65.7954 78.9139C65.8673 81.5482 65.8685 83.6815 65.8081 85.1535C65.7803 85.8402 65.7571 86.4017 65.7397 86.8483C65.7177 87.2346 65.6979 87.4376 65.6794 87.4364Z" fill="#EBEBEB"/>
</g>
<path id="Vector_6" d="M79.5333 161.994C91.6193 164.649 101.571 173.174 113.231 177.319C120.945 180.061 129.67 181.032 135.829 186.426C134.351 182.694 130.847 180.21 127.444 178.083C117.855 172.094 107.587 167.192 96.9008 163.502C91.4151 161.608 85.4632 160.026 79.8731 161.586" fill="#EBEBEB"/>
<path id="Vector_7" d="M62.059 172.761C46.9234 172.518 30.9861 159.631 15.92 158.862C31.6868 153.772 54.2615 157.93 62.059 172.761Z" fill="#EBEBEB"/>
<path id="Vector_8" d="M67.9727 136.452C75.6589 133.682 84.0979 133.55 92.1703 134.805C100.244 136.06 108.04 138.648 115.794 141.226C115.018 135.974 110.764 132.026 106.769 128.529C103.762 125.9 100.732 123.253 97.2836 121.238C93.8338 119.224 89.8979 117.86 85.9075 118.028C81.0923 118.232 76.5092 120.716 73.3516 124.357C70.1941 127.999 68.4959 131.663 67.9727 136.452Z" fill="#EBEBEB"/>
<path id="Vector_9" d="M36.9091 119.741C27.3808 111.606 12.9493 112.402 0.424744 112.684C19.6784 121.89 40.4262 134.51 57.0072 147.944C57.5165 139.09 48.9452 130.017 36.9091 119.741Z" fill="#EBEBEB"/>
<path id="Vector_10" d="M72.2589 108.511C77.0497 105.318 81.8962 102.273 86.912 99.9946C91.9267 97.7163 96.6061 94.0867 101.45 91.4639C107.731 88.0628 113.172 83.3358 118.936 79.1192C124.701 74.9026 131.034 71.0967 138.088 69.9808C132.335 68.7941 126.325 69.4413 120.659 70.9888C114.992 72.5362 109.61 74.9583 104.254 77.3711C96.8207 80.72 89.2599 84.1502 83.1838 89.5859C77.1077 95.0205 71.6163 100.386 72.2589 108.511Z" fill="#EBEBEB"/>
<g id="Group_5">
<path id="Vector_11" d="M112.954 172.761C112.945 172.778 112.78 172.706 112.475 172.555C112.118 172.37 111.682 172.144 111.154 171.87C110.015 171.264 108.378 170.365 106.317 169.329C105.297 168.791 104.166 168.228 102.94 167.653C101.725 167.05 100.406 166.454 99.0097 165.85C96.2152 164.656 93.0937 163.411 89.6903 162.602C86.2973 161.769 82.9147 161.587 79.981 162.357C78.5009 162.716 77.1066 163.068 75.8665 163.586C74.6218 164.09 73.5129 164.68 72.5454 165.291C70.6059 166.511 69.251 167.806 68.3718 168.738C67.4948 169.678 67.0679 170.252 67.0296 170.223C67.0146 170.213 67.1085 170.06 67.3011 169.778C67.4902 169.494 67.7964 169.093 68.2152 168.598C69.055 167.613 70.389 166.256 72.3378 164.971C73.3087 164.328 74.4304 163.706 75.696 163.173C76.9581 162.624 78.3837 162.246 79.865 161.875C82.8636 161.055 86.3784 161.23 89.8132 162.077C93.27 162.899 96.4078 164.169 99.2081 165.394C100.607 166.015 101.926 166.627 103.135 167.249C104.358 167.844 105.481 168.428 106.493 168.989C108.537 170.071 110.147 171.023 111.256 171.686C111.764 171.995 112.184 172.25 112.527 172.459C112.817 172.642 112.964 172.745 112.954 172.761Z" fill="#E0E0E0"/>
</g>
<g id="Group_6">
<path id="Vector_12" d="M50.7699 165.261C50.7827 165.226 51.1191 165.326 51.7176 165.538C52.3197 165.742 53.1665 166.104 54.1838 166.61C56.2207 167.616 58.8992 169.329 61.4152 171.738C63.9243 174.157 65.7432 176.766 66.8301 178.76C67.3765 179.756 67.772 180.588 67.9994 181.181C68.2348 181.77 68.3485 182.102 68.3137 182.117C68.2267 182.155 67.6618 180.873 66.4983 178.951C65.3406 177.029 63.5067 174.505 61.0405 172.127C58.5674 169.758 55.9725 168.026 54.0051 166.947C52.0378 165.863 50.7339 165.35 50.7699 165.261Z" fill="#E0E0E0"/>
</g>
<g id="Group_7">
<path id="Vector_13" d="M17.2807 118.98C17.2865 118.963 17.5081 119.029 17.9257 119.171C18.3943 119.338 18.9963 119.551 19.7422 119.817C20.5496 120.115 21.5066 120.467 22.6074 120.873C23.7233 121.289 24.9355 121.9 26.3078 122.504C31.7575 124.979 39.0087 129.142 46.0127 135.059C49.4672 138.066 52.5899 141.121 55.2023 144.108C57.8041 147.101 60.007 149.915 61.7238 152.372C63.4522 154.82 64.7618 156.859 65.6608 158.269C66.0865 158.935 66.4299 159.474 66.6967 159.892C66.931 160.265 67.047 160.467 67.0319 160.477C67.0168 160.487 66.8707 160.308 66.6074 159.955C66.3429 159.602 65.9589 159.076 65.4868 158.385C64.5345 157.01 63.1773 155.006 61.4152 152.595C59.6648 150.175 57.4399 147.398 54.8311 144.439C52.2118 141.485 49.0972 138.459 45.6636 135.471C38.7024 129.591 31.5313 125.403 26.1454 122.85C24.7905 122.226 23.5934 121.593 22.4914 121.152C21.4068 120.715 20.4637 120.334 19.668 120.013C18.9383 119.709 18.3479 119.463 17.8897 119.273C17.4849 119.099 17.2749 118.999 17.2807 118.98Z" fill="#E0E0E0"/>
</g>
<g id="Group_8">
<path id="Vector_14" d="M90.6843 127.945C90.6739 127.981 90.2435 127.923 89.4779 127.789C89.0615 127.713 88.5998 127.627 88.0871 127.533C87.5465 127.429 86.9155 127.426 86.2276 127.354C83.5063 127.157 79.5402 127.381 75.8247 129.406C73.9502 130.355 72.3772 131.635 71.0919 132.919C69.7858 134.193 68.7951 135.52 68.0493 136.681C66.5308 139.005 66.061 140.685 65.9682 140.651C65.9392 140.644 66.0239 140.216 66.2756 139.472C66.554 138.74 66.9821 137.676 67.7245 136.479C68.4425 135.271 69.4204 133.892 70.7381 132.569C72.035 131.236 73.6428 129.906 75.573 128.928C79.4045 126.84 83.5063 126.672 86.2613 126.973C86.9573 127.069 87.5964 127.099 88.1381 127.234C88.6497 127.362 89.1091 127.478 89.5243 127.583C90.2818 127.782 90.6948 127.909 90.6843 127.945Z" fill="#E0E0E0"/>
</g>
<g id="Group_9">
<path id="Vector_15" d="M105.897 80.7525C105.905 80.7687 105.707 80.8905 105.324 81.1051C104.887 81.3418 104.328 81.6457 103.635 82.0227C102.166 82.8138 100.054 83.9808 97.4854 85.4934C94.9299 87.0269 91.9197 88.9084 88.717 91.1983C85.5235 93.4928 82.0934 96.1596 78.9266 99.4006C77.3652 101.03 75.9256 102.733 74.9222 104.585C73.9316 106.489 72.9827 108.329 72.1116 110.096C70.3611 113.627 68.9355 116.876 67.9066 119.669C66.88 122.464 66.2408 124.79 65.8603 126.41C65.4729 128.029 65.3325 128.944 65.2803 128.935C65.2618 128.933 65.2826 128.702 65.3406 128.266C65.3952 127.829 65.4868 127.186 65.655 126.366C65.9728 124.725 66.561 122.367 67.547 119.541C68.5364 116.715 69.9331 113.431 71.665 109.878C72.5268 108.099 73.4676 106.252 74.4524 104.342C75.4941 102.406 76.9557 100.68 78.538 99.026C81.743 95.7466 85.2022 93.0775 88.4281 90.7934C91.6622 88.5152 94.7049 86.6592 97.2917 85.164C99.8912 83.6896 102.036 82.5702 103.536 81.8359C104.249 81.4961 104.825 81.2211 105.272 81.0077C105.675 80.8244 105.888 80.7351 105.897 80.7525Z" fill="#E0E0E0"/>
</g>
<g id="Group_10">
<path id="Vector_16" d="M63.4545 126.581C63.4174 126.586 63.313 126.132 63.1541 125.305C62.9778 124.371 62.755 123.2 62.4917 121.807C61.9152 118.861 61.0336 114.803 59.63 110.45C58.238 106.09 56.5444 102.297 55.3067 99.5607C54.7197 98.2708 54.2255 97.185 53.8311 96.3197C53.4866 95.5518 53.3126 95.1191 53.3463 95.1028C53.3799 95.0866 53.6177 95.4868 54.0202 96.2269C54.4228 96.967 54.9865 98.0458 55.6523 99.3972C56.9805 102.097 58.7414 105.89 60.1439 110.284C61.5579 114.671 62.3862 118.768 62.8676 121.74C63.1054 123.228 63.2747 124.435 63.3617 125.273C63.4568 126.111 63.4916 126.576 63.4545 126.581Z" fill="#E0E0E0"/>
</g>
<path id="Vector_17" d="M62.3595 92.1448C61.9801 86.4272 60.1172 80.8696 57.4376 75.8039C50.0913 61.9141 36.2838 51.6179 20.8755 48.5381C32.1589 65.3546 43.4422 82.1723 54.7243 98.9888L59.0952 107.994C62.0776 103.101 62.7388 97.8636 62.3595 92.1448Z" fill="#EBEBEB"/>
</g>
<g id="Group_11">
<g id="Group_12">
<path id="Vector_18" d="M110.915 191.572H32.2053V205.522H110.915V191.572Z" fill="#EBEBEB"/>
</g>
<g id="Group_13">
<path id="Vector_19" d="M38.083 202.755L44.7855 246.042H97.0388L105.036 202.755H38.083Z" fill="#EBEBEB"/>
</g>
<g id="Group_14">
<g id="Group_15">
<path id="Vector_20" d="M110.871 205.539C110.871 205.693 93.1169 205.817 71.2207 205.817C49.3176 205.817 31.5673 205.693 31.5673 205.539C31.5673 205.386 49.3176 205.263 71.2207 205.263C93.1169 205.263 110.871 205.388 110.871 205.539Z" fill="#E0E0E0"/>
</g>
</g>
</g>
</g>
</svg>
